<svg width="485.001" height="89.201" viewBox="0 0 485.001 89.201" xmlns="http://www.w3.org/2000/svg"><g id="svgGroup" stroke-linecap="round" fill-rule="evenodd" font-size="9pt"  fill="#333333">

<style>
    * {
      transform-origin: center;
      transform-box: fill-box;
    }

    .animate-fade-in-bottom {
      animation: fade-in-bottom 0.64s cubic-bezier(0, 0, 0.2, 1) forwards;
    }

    @keyframes fade-in-bottom {
      from {
        opacity: 0;
        transform: translate3d(0, -20px, 0);
      }
      to {
        opacity: 1;
        transform: translate3d(0, 0, 0);
      }
    }
  </style>

<path class="animate-fade-in-bottom title" d="M 15.201 66.801 L 29.201 64.301 Q 30.502 61.774 31.804 58.398 A 94.583 94.583 0 0 0 32.601 56.251 A 125.278 125.278 0 0 0 34.194 51.479 Q 35.098 48.595 36.001 45.301 Q 37.302 40.554 38.135 36.774 A 105.594 105.594 0 0 0 38.601 34.551 Q 39.46 30.209 39.499 27.46 A 18.178 18.178 0 0 0 39.501 27.201 Q 39.501 25.603 41.268 25.507 A 4.3 4.3 0 0 1 41.501 25.501 A 1.756 1.756 0 0 1 42.294 25.668 Q 43.029 26.035 43.168 27.209 A 5.041 5.041 0 0 1 43.201 27.801 A 30.411 30.411 0 0 1 42.947 31.472 Q 42.285 36.846 39.901 45.301 Q 38.301 50.601 36.751 55.051 Q 35.201 59.501 33.501 63.001 Q 39.901 61.101 43.501 57.901 Q 45.101 56.501 46.701 54.451 A 53.426 53.426 0 0 0 48.46 52.069 A 42.885 42.885 0 0 0 49.501 50.501 Q 50.001 49.601 50.701 48.901 A 4.34 4.34 0 0 1 51.033 48.599 Q 51.524 48.201 51.901 48.201 A 1.91 1.91 0 0 1 52.27 48.239 Q 52.519 48.288 52.801 48.401 A 0.797 0.797 0 0 1 53.105 48.607 Q 53.238 48.756 53.281 48.977 A 1.186 1.186 0 0 1 53.301 49.201 A 3.454 3.454 0 0 1 53.181 50.125 A 2.931 2.931 0 0 1 52.901 50.801 Q 49.701 56.601 44.701 60.751 A 27.531 27.531 0 0 1 39.288 64.213 Q 35.81 65.932 31.401 67.101 A 57.932 57.932 0 0 1 27.575 73.08 A 53.401 53.401 0 0 1 27.301 73.451 Q 25.101 76.401 22.501 78.801 Q 15.201 85.801 8.401 85.801 A 12.124 12.124 0 0 1 5.766 85.53 A 8.376 8.376 0 0 1 2.351 83.951 A 6.321 6.321 0 0 1 0.747 82.136 A 5.791 5.791 0 0 1 0.001 79.201 A 8.37 8.37 0 0 1 1.682 74.203 A 12.487 12.487 0 0 1 3.401 72.301 A 18.162 18.162 0 0 1 7.278 69.608 Q 9.232 68.576 11.659 67.78 A 40.8 40.8 0 0 1 15.201 66.801 Z M 8.001 82.301 A 15.094 15.094 0 0 0 16.078 79.803 Q 21.003 76.723 25.793 69.844 A 65.58 65.58 0 0 0 26.901 68.201 Q 25.599 68.354 23.653 68.683 A 137.363 137.363 0 0 0 22.401 68.901 Q 19.601 69.401 15.801 70.101 A 35.578 35.578 0 0 0 11.494 71.35 Q 4.001 74.101 4.001 79.201 A 3.379 3.379 0 0 0 4.267 80.593 Q 4.915 82.039 7.143 82.261 A 8.688 8.688 0 0 0 8.001 82.301 Z M 41.016 18.727 A 5.039 5.039 0 0 0 42.401 18.901 Q 45.121 18.901 45.727 16.786 A 5.039 5.039 0 0 0 45.901 15.401 Q 45.901 12.68 43.786 12.074 A 5.039 5.039 0 0 0 42.401 11.901 Q 39.68 11.901 39.074 14.016 A 5.039 5.039 0 0 0 38.901 15.401 Q 38.901 18.121 41.016 18.727 Z" id="0" vector-effect="non-scaling-stroke"/>
<path class="animate-fade-in-bottom title" d="M 84.401 35.601 L 81.201 44.701 Q 79.774 48.713 79.62 52.089 A 17.737 17.737 0 0 0 79.601 52.901 A 12.842 12.842 0 0 0 79.757 54.969 Q 79.936 56.068 80.323 56.953 A 6.022 6.022 0 0 0 81.051 58.201 A 4.619 4.619 0 0 0 84.392 60.071 A 6.099 6.099 0 0 0 85.001 60.101 Q 86.401 60.101 88.101 59.301 Q 89.29 58.741 90.724 57.643 A 28.066 28.066 0 0 0 92.001 56.601 A 26.086 26.086 0 0 0 94.845 53.707 A 24.133 24.133 0 0 0 94.851 53.701 A 29.354 29.354 0 0 0 96.542 51.501 A 25.136 25.136 0 0 0 97.201 50.501 Q 97.801 49.601 98.501 48.751 Q 98.895 48.271 99.29 48.062 A 1.294 1.294 0 0 1 99.901 47.901 Q 100.845 47.901 101.046 48.705 A 2.046 2.046 0 0 1 101.101 49.201 A 2.988 2.988 0 0 1 100.955 50.137 A 2.838 2.838 0 0 1 100.951 50.151 A 2.874 2.874 0 0 1 100.857 50.396 Q 100.741 50.66 100.601 50.801 Q 99.301 52.901 97.701 54.901 Q 96.101 56.901 94.301 58.601 A 18.637 18.637 0 0 1 91.694 60.614 A 14.864 14.864 0 0 1 89.301 61.851 Q 86.701 62.901 84.301 62.901 A 10.055 10.055 0 0 1 81.194 62.439 A 8.469 8.469 0 0 1 78.101 60.651 A 6.358 6.358 0 0 1 76.098 56.981 Q 75.877 55.801 75.977 54.395 A 13.45 13.45 0 0 1 76.001 54.101 Q 69.901 62.801 61.301 62.801 A 11.094 11.094 0 0 1 57.85 62.293 A 8.669 8.669 0 0 1 53.101 58.501 Q 51.365 55.818 50.999 51.641 A 26.82 26.82 0 0 1 50.901 49.301 Q 50.901 48.201 51.001 47.051 Q 51.101 45.901 51.301 44.801 Q 52.001 40.801 54.001 37.051 A 37.721 37.721 0 0 1 56.969 32.383 A 46.752 46.752 0 0 1 59.201 29.601 Q 63.939 24.271 68.893 22.448 A 14.982 14.982 0 0 1 74.101 21.501 A 11.77 11.77 0 0 1 77.311 21.919 A 9.211 9.211 0 0 1 80.901 23.851 A 7.687 7.687 0 0 1 83.452 28.534 A 11.265 11.265 0 0 1 83.601 30.401 A 6.547 6.547 0 0 1 82.887 33.35 A 7.842 7.842 0 0 1 82.701 33.701 A 3.604 3.604 0 0 1 83.345 33.784 Q 84.73 34.107 84.402 35.596 A 3.215 3.215 0 0 1 84.401 35.601 Z M 60.761 59.359 A 10.354 10.354 0 0 0 61.701 59.401 A 12.378 12.378 0 0 0 70.116 56.096 A 19.039 19.039 0 0 0 72.601 53.401 A 26.992 26.992 0 0 0 73.755 51.692 Q 74.289 50.836 74.838 49.843 A 52.206 52.206 0 0 0 75.501 48.601 A 46.447 46.447 0 0 0 76.885 45.662 Q 77.56 44.096 78.214 42.314 A 77.777 77.777 0 0 0 78.401 41.801 A 33.968 33.968 0 0 0 78.76 40.859 Q 78.938 40.372 79.125 39.824 A 60.791 60.791 0 0 0 79.251 39.451 A 38.468 38.468 0 0 1 79.692 38.203 Q 79.928 37.568 80.209 36.872 A 65.775 65.775 0 0 1 80.401 36.401 A 8.194 8.194 0 0 1 78.711 37.393 A 6.081 6.081 0 0 1 76.301 37.901 A 9.679 9.679 0 0 1 75.077 37.83 Q 72.701 37.526 72.701 35.901 A 2.447 2.447 0 0 1 72.785 35.228 Q 73.079 34.201 74.401 34.201 A 1.71 1.71 0 0 1 74.601 34.214 Q 74.815 34.24 75.111 34.314 A 7.464 7.464 0 0 1 75.251 34.351 Q 75.801 34.501 76.101 34.501 A 3.519 3.519 0 0 0 78.025 33.915 A 5.225 5.225 0 0 0 78.901 33.201 A 5.135 5.135 0 0 0 79.667 32.241 A 3.494 3.494 0 0 0 80.201 30.401 A 6.968 6.968 0 0 0 79.86 28.125 Q 78.792 25.03 74.375 24.906 A 13.349 13.349 0 0 0 74.001 24.901 A 11.972 11.972 0 0 0 68.382 26.379 Q 66.475 27.383 64.567 29.068 A 31.23 31.23 0 0 0 61.601 32.101 A 34.558 34.558 0 0 0 57.865 37.065 Q 55.326 41.213 54.701 45.401 Q 54.501 46.501 54.401 47.601 Q 54.301 48.701 54.301 49.801 Q 54.301 58.77 60.761 59.359 Z" id="1" vector-effect="non-scaling-stroke"/>
<path class="animate-fade-in-bottom title" d="M 108.946 62.945 A 19.203 19.203 0 0 0 113.701 63.501 A 20.15 20.15 0 0 0 117.936 63.055 A 21.71 21.71 0 0 0 125.101 60.051 Q 130.501 56.601 133.901 50.801 Q 134.001 50.601 134.151 50.201 A 1.51 1.51 0 0 0 134.157 50.182 Q 134.255 49.912 134.286 49.509 A 5.312 5.312 0 0 0 134.301 49.101 Q 134.301 47.901 133.301 47.901 A 1.662 1.662 0 0 0 132.368 48.181 A 2.245 2.245 0 0 0 131.901 48.601 A 12.706 12.706 0 0 0 131.485 49.114 Q 131.267 49.398 131.027 49.735 A 30.844 30.844 0 0 0 130.501 50.501 A 26.948 26.948 0 0 1 128.098 53.739 A 18.434 18.434 0 0 1 113.601 60.401 A 15.204 15.204 0 0 1 110.785 60.153 A 10.041 10.041 0 0 1 104.601 56.551 A 13.588 13.588 0 0 1 101.955 50.941 A 19.631 19.631 0 0 1 101.501 46.601 Q 101.501 45.501 101.651 44.351 Q 101.801 43.201 102.001 42.101 Q 104.601 43.101 108.701 43.101 A 33.165 33.165 0 0 0 112.618 42.875 A 26.448 26.448 0 0 0 122.201 39.901 A 22.272 22.272 0 0 0 122.764 39.575 Q 124.625 38.463 125.931 37.17 A 9.647 9.647 0 0 0 129.001 30.101 A 9.869 9.869 0 0 0 128.891 28.602 A 6.667 6.667 0 0 0 126.451 24.251 Q 124.857 22.97 122.658 22.489 A 13.38 13.38 0 0 0 119.801 22.201 A 18.722 18.722 0 0 0 110.942 24.415 A 24.443 24.443 0 0 0 105.501 28.401 A 22.718 22.718 0 0 0 99.336 37.898 A 27.206 27.206 0 0 0 98.001 46.601 A 23.141 23.141 0 0 0 98.421 51.118 A 16.28 16.28 0 0 0 102.101 58.801 A 13.169 13.169 0 0 0 108.946 62.945 Z M 108.401 39.701 A 27.972 27.972 0 0 0 114.783 39 A 22.765 22.765 0 0 0 119.801 37.201 A 15.757 15.757 0 0 0 122.338 35.695 Q 123.638 34.731 124.42 33.615 A 6.329 6.329 0 0 0 125.601 29.901 A 4.22 4.22 0 0 0 125.118 27.822 Q 124.154 26.086 121.265 25.707 A 13.609 13.609 0 0 0 119.501 25.601 Q 114.001 25.601 109.301 29.701 A 22.783 22.783 0 0 0 103.257 37.953 A 26.85 26.85 0 0 0 102.901 38.801 Q 104.978 39.614 107.79 39.692 A 21.846 21.846 0 0 0 108.401 39.701 Z" id="2" vector-effect="non-scaling-stroke"/>
<path  class="animate-fade-in-bottom title" d="M 137.103 62.612 A 10.682 10.682 0 0 0 141.101 63.301 Q 146.906 63.301 151.745 57.219 A 34.569 34.569 0 0 0 154.801 52.601 A 21.875 21.875 0 0 0 154.938 54.904 Q 155.833 62.601 162.501 62.601 A 16.915 16.915 0 0 0 169.85 60.958 Q 173.202 59.365 176.15 56.23 A 34.905 34.905 0 0 0 180.501 50.401 Q 186.701 40.301 186.701 30.401 A 27.474 27.474 0 0 0 186.653 28.756 Q 186.508 26.352 185.932 24.332 A 13.747 13.747 0 0 0 183.201 19.101 A 12.411 12.411 0 0 0 182.236 18.092 A 8.746 8.746 0 0 0 176.101 15.601 A 9.07 9.07 0 0 0 176.055 15.601 A 7.121 7.121 0 0 0 171.151 17.451 A 5.951 5.951 0 0 0 169.414 20.17 A 7.582 7.582 0 0 0 169.101 22.401 Q 169.101 24.701 170.751 26.401 Q 172.401 28.101 174.701 28.101 Q 175.952 28.101 176.225 27.061 A 2.61 2.61 0 0 0 176.301 26.401 A 1.963 1.963 0 0 0 176.25 25.938 Q 176.15 25.525 175.852 25.29 A 1.353 1.353 0 0 0 175.351 25.051 A 10.084 10.084 0 0 1 175.098 24.981 A 11.09 11.09 0 0 1 173.451 24.351 A 1.455 1.455 0 0 1 172.758 23.655 Q 172.62 23.376 172.556 23.008 A 4.139 4.139 0 0 1 172.501 22.301 A 4.845 4.845 0 0 1 172.656 21.02 Q 173.076 19.488 174.637 19.063 A 5.208 5.208 0 0 1 176.001 18.901 A 5.296 5.296 0 0 1 179.381 20.067 A 7.268 7.268 0 0 1 180.801 21.601 A 9.808 9.808 0 0 1 182.167 24.051 Q 183.201 26.695 183.201 30.501 A 25.07 25.07 0 0 1 182.905 34.303 Q 182.34 37.987 180.697 41.884 A 47.592 47.592 0 0 1 177.101 48.701 A 47.56 47.56 0 0 1 176.348 49.861 Q 172.939 54.95 169.371 57.267 A 11.034 11.034 0 0 1 163.301 59.201 A 7.144 7.144 0 0 1 162.245 59.126 Q 159.141 58.663 158.419 55.302 A 11.008 11.008 0 0 1 158.201 53.001 Q 158.201 50.676 159.044 46.551 A 94.858 94.858 0 0 1 159.701 43.601 A 2429.072 2429.072 0 0 1 160.714 39.974 Q 161.197 38.253 161.63 36.718 A 1178.764 1178.764 0 0 1 162.601 33.301 A 298.105 298.105 0 0 1 163.141 31.431 Q 163.988 28.538 164.601 26.701 Q 164.849 25.293 163.383 25.051 A 4.214 4.214 0 0 0 162.701 25.001 A 1.996 1.996 0 0 0 162.663 25.001 Q 162.11 25.012 161.712 25.329 A 1.843 1.843 0 0 0 161.301 25.801 A 534.868 534.868 0 0 0 160.777 27.268 Q 159.211 31.677 158.051 35.201 A 319.691 319.691 0 0 0 158.019 35.298 Q 156.691 39.334 155.901 42.101 A 67.74 67.74 0 0 1 153.689 47.748 Q 150.789 54.209 147.381 57.207 A 9.377 9.377 0 0 1 141.101 59.801 A 8.104 8.104 0 0 1 140.231 59.756 Q 135.301 59.223 135.301 52.401 A 17.338 17.338 0 0 1 135.326 51.487 Q 135.751 43.433 143.401 25.301 A 0.63 0.63 0 0 0 143.442 25.192 Q 143.481 25.052 143.494 24.832 A 3.956 3.956 0 0 0 143.501 24.601 A 2.306 2.306 0 0 0 143.464 24.177 Q 143.244 23.001 141.701 23.001 A 0.803 0.803 0 0 0 141.199 23.244 Q 139.948 24.343 137.639 30.407 A 142.988 142.988 0 0 0 136.401 33.801 A 236.159 236.159 0 0 0 135.407 36.602 Q 134.944 37.934 134.549 39.129 A 114.603 114.603 0 0 0 133.701 41.801 A 89.525 89.525 0 0 0 133.384 42.87 Q 132.898 44.547 132.625 45.77 A 21.212 21.212 0 0 0 132.401 46.901 Q 132.201 48.201 132.051 49.501 Q 131.901 50.801 131.901 52.101 A 24.211 24.211 0 0 0 131.958 53.796 Q 132.446 60.742 137.103 62.612 Z" id="3" vector-effect="non-scaling-stroke"/>
<path class="animate-fade-in-bottom title" d="M 213.211 53.683 A 30.737 30.737 0 0 0 215.401 50.501 A 36.877 36.877 0 0 0 218.765 43.201 A 27.808 27.808 0 0 0 220.201 34.501 A 16.429 16.429 0 0 0 219.204 28.932 A 19.263 19.263 0 0 0 218.801 27.901 Q 217.94 25.912 216.733 24.992 A 3.752 3.752 0 0 0 214.401 24.201 A 5.386 5.386 0 0 0 210.92 25.5 Q 209.899 26.334 209.001 27.701 A 15.585 15.585 0 0 0 207.512 30.528 A 11.03 11.03 0 0 0 206.701 34.601 A 8.385 8.385 0 0 0 206.824 36.108 Q 207.296 38.681 209.583 38.795 A 4.34 4.34 0 0 0 209.801 38.801 A 2.164 2.164 0 0 1 210.444 38.888 Q 211.15 39.108 211.335 39.882 A 2.67 2.67 0 0 1 211.401 40.501 A 2.61 2.61 0 0 1 211.325 41.161 Q 211.052 42.201 209.801 42.201 A 7.862 7.862 0 0 1 207.095 41.774 Q 203.639 40.51 203.416 35.51 A 15.894 15.894 0 0 1 203.401 34.801 Q 203.401 29.201 206.901 24.801 Q 206.818 24.718 206.666 24.704 A 0.703 0.703 0 0 0 206.601 24.701 A 1.33 1.33 0 0 0 206.326 24.738 Q 205.714 24.873 204.301 25.501 A 14.936 14.936 0 0 0 200.246 28.861 Q 198.836 30.492 197.63 32.658 A 31.281 31.281 0 0 0 196.501 34.901 Q 193.701 40.901 193.701 47.101 Q 193.701 52.01 195.629 55.474 A 13.129 13.129 0 0 0 195.701 55.601 A 9.021 9.021 0 0 0 197.871 58.038 Q 199.765 59.479 202.356 59.591 A 10.238 10.238 0 0 0 202.801 59.601 Q 208.526 59.601 213.211 53.683 Z M 193.101 58.101 A 14.271 14.271 0 0 0 193.233 58.287 Q 196.719 63.101 202.901 63.101 A 13.907 13.907 0 0 0 209.566 61.423 Q 214.231 58.924 218.001 52.701 A 42.773 42.773 0 0 0 221.193 46.379 A 32.007 32.007 0 0 0 223.601 34.401 Q 223.601 29.501 221.601 25.701 A 11.704 11.704 0 0 0 220.284 23.644 A 7.243 7.243 0 0 0 214.401 20.801 A 7.85 7.85 0 0 0 211.509 21.369 A 10.771 10.771 0 0 0 209.401 22.501 A 3.622 3.622 0 0 0 207.973 21.611 A 4.3 4.3 0 0 0 206.601 21.401 A 5.726 5.726 0 0 0 205.43 21.531 Q 204.809 21.661 204.117 21.921 A 13.85 13.85 0 0 0 202.801 22.501 Q 198.994 24.404 196.179 28.417 A 28.93 28.93 0 0 0 193.501 33.201 Q 190.301 40.401 190.301 47.201 A 29.95 29.95 0 0 0 190.316 48.155 Q 190.397 50.699 190.916 52.883 A 16.444 16.444 0 0 0 193.101 58.101 Z" id="4" vector-effect="non-scaling-stroke"/>
<path class="animate-fade-in-bottom title" d="M 249.211 53.683 A 30.737 30.737 0 0 0 251.401 50.501 A 36.877 36.877 0 0 0 254.765 43.201 A 27.808 27.808 0 0 0 256.201 34.501 A 16.429 16.429 0 0 0 255.204 28.932 A 19.263 19.263 0 0 0 254.801 27.901 Q 253.94 25.912 252.733 24.992 A 3.752 3.752 0 0 0 250.401 24.201 A 5.386 5.386 0 0 0 246.92 25.5 Q 245.899 26.334 245.001 27.701 A 15.585 15.585 0 0 0 243.512 30.528 A 11.03 11.03 0 0 0 242.701 34.601 A 8.385 8.385 0 0 0 242.824 36.108 Q 243.296 38.681 245.583 38.795 A 4.34 4.34 0 0 0 245.801 38.801 A 2.164 2.164 0 0 1 246.444 38.888 Q 247.15 39.108 247.335 39.882 A 2.67 2.67 0 0 1 247.401 40.501 A 2.61 2.61 0 0 1 247.325 41.161 Q 247.052 42.201 245.801 42.201 A 7.862 7.862 0 0 1 243.095 41.774 Q 239.639 40.51 239.416 35.51 A 15.894 15.894 0 0 1 239.401 34.801 Q 239.401 29.201 242.901 24.801 Q 242.818 24.718 242.666 24.704 A 0.703 0.703 0 0 0 242.601 24.701 A 1.33 1.33 0 0 0 242.326 24.738 Q 241.714 24.873 240.301 25.501 A 14.936 14.936 0 0 0 236.246 28.861 Q 234.836 30.492 233.63 32.658 A 31.281 31.281 0 0 0 232.501 34.901 Q 229.701 40.901 229.701 47.101 Q 229.701 52.01 231.629 55.474 A 13.129 13.129 0 0 0 231.701 55.601 A 9.021 9.021 0 0 0 233.871 58.038 Q 235.765 59.479 238.356 59.591 A 10.238 10.238 0 0 0 238.801 59.601 Q 244.526 59.601 249.211 53.683 Z M 229.101 58.101 A 14.271 14.271 0 0 0 229.233 58.287 Q 232.719 63.101 238.901 63.101 A 13.907 13.907 0 0 0 245.566 61.423 Q 250.231 58.924 254.001 52.701 A 42.773 42.773 0 0 0 257.193 46.379 A 32.007 32.007 0 0 0 259.601 34.401 Q 259.601 29.501 257.601 25.701 A 11.704 11.704 0 0 0 256.284 23.644 A 7.243 7.243 0 0 0 250.401 20.801 A 7.85 7.85 0 0 0 247.509 21.369 A 10.771 10.771 0 0 0 245.401 22.501 A 3.622 3.622 0 0 0 243.973 21.611 A 4.3 4.3 0 0 0 242.601 21.401 A 5.726 5.726 0 0 0 241.43 21.531 Q 240.809 21.661 240.117 21.921 A 13.85 13.85 0 0 0 238.801 22.501 Q 234.994 24.404 232.179 28.417 A 28.93 28.93 0 0 0 229.501 33.201 Q 226.301 40.401 226.301 47.201 A 29.95 29.95 0 0 0 226.316 48.155 Q 226.397 50.699 226.916 52.883 A 16.444 16.444 0 0 0 229.101 58.101 Z" id="5" vector-effect="non-scaling-stroke"/>
<path class="animate-fade-in-bottom title" d="M 288.746 62.764 A 11.042 11.042 0 0 0 291.101 63.001 Q 294.001 63.001 297.101 61.301 A 22.224 22.224 0 0 0 298.999 60.131 A 25.443 25.443 0 0 0 302.901 56.801 A 29.759 29.759 0 0 0 303.56 56.095 A 26.289 26.289 0 0 0 307.301 50.801 A 0.484 0.484 0 0 0 307.315 50.786 Q 307.508 50.576 307.701 49.901 Q 307.857 49.354 307.891 49.112 A 0.826 0.826 0 0 0 307.901 49.001 A 3.018 3.018 0 0 0 307.897 48.857 Q 307.853 47.921 307.211 47.683 A 1.459 1.459 0 0 0 306.701 47.601 A 1.569 1.569 0 0 0 305.793 47.878 A 2.015 2.015 0 0 0 305.351 48.301 Q 304.801 49.001 303.901 50.401 A 17.991 17.991 0 0 1 302.503 52.375 A 22.385 22.385 0 0 1 300.201 54.801 A 27.147 27.147 0 0 1 299.185 55.684 A 23.42 23.42 0 0 1 295.401 58.251 A 14.77 14.77 0 0 1 294.935 58.492 Q 292.694 59.601 290.701 59.601 A 5.897 5.897 0 0 1 290.036 59.565 Q 289.515 59.506 289.1 59.348 A 2.306 2.306 0 0 1 287.951 58.451 A 3.952 3.952 0 0 1 287.722 58.051 Q 287.201 57.002 287.201 55.501 Q 287.201 53.501 287.851 51.101 A 73.205 73.205 0 0 1 288.429 49.077 A 57.644 57.644 0 0 1 289.201 46.701 Q 293.301 35.001 293.301 31.101 A 14.18 14.18 0 0 0 292.923 27.669 Q 291.529 22.101 285.001 22.101 A 13.626 13.626 0 0 0 278.812 23.611 Q 274.36 25.849 270.301 31.401 A 43.171 43.171 0 0 0 270.7 29.542 Q 270.949 28.236 271.074 27.08 A 20.292 20.292 0 0 0 271.201 24.901 A 3.909 3.909 0 0 0 271.15 24.292 Q 271.087 23.888 270.942 23.438 A 8.799 8.799 0 0 0 270.601 22.551 A 4.014 4.014 0 0 0 270.4 22.156 Q 270.224 21.855 270.02 21.649 A 1.395 1.395 0 0 0 269.001 21.201 A 2.454 2.454 0 0 0 268.54 21.241 Q 267.301 21.478 267.301 23.101 Q 267.301 30.376 263.644 42.32 A 181.453 181.453 0 0 1 260.801 50.801 A 1179.557 1179.557 0 0 0 259.989 53.029 Q 257.771 59.131 257.454 60.262 A 1.261 1.261 0 0 0 257.401 60.501 A 1.315 1.315 0 0 0 257.472 60.921 Q 257.608 61.325 258.001 61.751 Q 258.217 61.986 258.447 62.136 A 1.537 1.537 0 0 0 259.301 62.401 A 1.088 1.088 0 0 0 259.999 62.148 Q 260.182 62.001 260.341 61.769 A 3.071 3.071 0 0 0 260.601 61.301 A 1178.219 1178.219 0 0 1 260.905 60.554 Q 261.354 59.454 261.759 58.469 A 666.219 666.219 0 0 1 262.551 56.551 Q 263.095 55.238 263.455 54.191 A 21.741 21.741 0 0 0 263.801 53.101 Q 268.201 41.601 271.401 36.201 Q 275.141 29.907 279.058 27.35 A 9.861 9.861 0 0 1 284.501 25.601 A 6.774 6.774 0 0 1 285.587 25.683 Q 289.301 26.287 289.301 31.301 A 13.732 13.732 0 0 1 289.287 31.915 A 16.544 16.544 0 0 1 289.201 33.001 Q 289.101 33.901 288.901 35.001 Q 288.75 35.755 288.287 37.361 A 112.335 112.335 0 0 1 287.951 38.501 Q 287.201 41.001 285.801 45.101 A 94.756 94.756 0 0 0 285.725 45.316 Q 285.161 46.926 284.711 48.399 A 58.46 58.46 0 0 0 283.901 51.301 A 42.982 42.982 0 0 0 283.61 52.535 Q 283.201 54.407 283.201 55.401 A 9.919 9.919 0 0 0 283.449 57.687 A 6.54 6.54 0 0 0 285.301 61.001 A 6.529 6.529 0 0 0 286.033 61.603 Q 287.196 62.426 288.746 62.764 Z" id="6" vector-effect="non-scaling-stroke"/>
<path class="animate-fade-in-bottom title" d="M 341.101 34.301 L 340.101 39.501 Q 339.401 43.001 338.151 48.351 A 4213.316 4213.316 0 0 1 337.15 52.623 Q 336.707 54.512 336.219 56.581 A 7533.742 7533.742 0 0 1 335.201 60.901 Q 336.919 59.612 338.971 57.916 A 146.455 146.455 0 0 0 339.651 57.351 A 20.179 20.179 0 0 0 341.207 55.882 Q 343.169 53.846 345.701 50.401 A 6.265 6.265 0 0 1 345.888 50.11 Q 346.21 49.636 346.84 48.829 A 57.572 57.572 0 0 1 346.901 48.751 A 6.094 6.094 0 0 1 347.285 48.303 Q 347.719 47.847 348.102 47.687 A 1.033 1.033 0 0 1 348.501 47.601 Q 349.374 47.601 349.554 48.293 A 1.621 1.621 0 0 1 349.601 48.701 Q 349.601 49.201 349.551 49.701 A 1.812 1.812 0 0 1 349.446 50.14 Q 349.332 50.454 349.101 50.801 A 38.723 38.723 0 0 1 346.363 54.491 Q 344.957 56.179 343.246 57.906 A 63.723 63.723 0 0 1 342.751 58.401 Q 338.801 62.301 333.801 65.401 A 61.286 61.286 0 0 1 328.377 75.165 Q 324.567 80.686 319.864 84.398 A 35.388 35.388 0 0 1 316.901 86.501 A 15.839 15.839 0 0 1 308.039 89.199 A 19.122 19.122 0 0 1 307.801 89.201 A 9.457 9.457 0 0 1 305.65 88.978 Q 302.101 88.146 302.101 84.201 A 6.791 6.791 0 0 1 303.342 80.477 Q 305.865 76.621 313.515 72.468 A 71.819 71.819 0 0 1 314.201 72.101 Q 318.488 70.263 325.765 66.55 A 517.557 517.557 0 0 0 330.501 64.101 Q 331.872 60.262 333.196 55.013 A 177.438 177.438 0 0 0 334.401 49.901 Q 331.601 54.501 328.001 57.601 A 22.205 22.205 0 0 1 323.14 60.968 A 16.851 16.851 0 0 1 315.501 62.801 A 11.025 11.025 0 0 1 311.81 62.206 A 9.505 9.505 0 0 1 308.101 59.801 A 10.883 10.883 0 0 1 305.825 55.78 Q 305.001 53.252 305.001 49.901 A 24.552 24.552 0 0 1 309.706 35.496 A 31.967 31.967 0 0 1 311.401 33.301 A 26.805 26.805 0 0 1 316.184 28.773 A 17.917 17.917 0 0 1 326.901 25.201 Q 330.396 25.201 332.721 26.447 A 7.832 7.832 0 0 1 334.401 27.651 Q 337.001 30.101 337.001 33.501 Q 337.001 36.801 334.701 39.301 A 7.615 7.615 0 0 1 329.752 41.74 A 10.566 10.566 0 0 1 328.601 41.801 Q 326.729 41.801 326.066 41.093 A 1.393 1.393 0 0 1 325.701 40.101 A 1.498 1.498 0 0 1 326.568 38.67 Q 327.287 38.301 328.601 38.301 A 5.947 5.947 0 0 0 330.36 38.052 A 4.758 4.758 0 0 0 332.351 36.851 A 5.129 5.129 0 0 0 333.367 35.444 A 4.437 4.437 0 0 0 333.801 33.501 A 4.997 4.997 0 0 0 333.3 31.187 Q 331.969 28.601 327.101 28.601 A 15.484 15.484 0 0 0 317.201 32.215 A 23.629 23.629 0 0 0 313.801 35.601 A 24.522 24.522 0 0 0 309.793 42.388 A 21.184 21.184 0 0 0 308.401 50.001 A 18.4 18.4 0 0 0 308.695 53.453 Q 309.778 59.093 314.846 59.473 A 10.078 10.078 0 0 0 315.601 59.501 Q 321.581 59.501 326.924 54.083 A 29.504 29.504 0 0 0 328.201 52.701 A 33.189 33.189 0 0 0 331.36 48.278 Q 332.766 45.953 334.068 43.119 A 72.362 72.362 0 0 0 335.801 39.001 Q 336.252 37.104 337.601 34.066 A 66.263 66.263 0 0 1 337.901 33.401 A 2.055 2.055 0 0 1 338.242 32.979 A 1.364 1.364 0 0 1 339.201 32.601 Q 340.823 32.601 341.06 33.84 A 2.454 2.454 0 0 1 341.101 34.301 Z M 313.789 84.675 A 29.047 29.047 0 0 0 314.601 84.201 A 34.321 34.321 0 0 0 323.101 76.619 A 47.006 47.006 0 0 0 327.901 69.401 A 891.546 891.546 0 0 0 326.117 70.214 Q 325.318 70.579 324.427 70.988 A 1801.408 1801.408 0 0 0 322.551 71.851 A 1565.512 1565.512 0 0 0 320.026 73.016 Q 317.788 74.051 315.101 75.301 A 42.214 42.214 0 0 0 311.743 77.198 Q 305.901 80.895 305.901 84.401 A 2.506 2.506 0 0 0 306.047 85.295 Q 306.463 86.388 308.058 86.49 A 5.348 5.348 0 0 0 308.401 86.501 Q 310.539 86.501 313.789 84.675 Z" id="7" vector-effect="non-scaling-stroke"/>
<path class="animate-fade-in-bottom title" d="M 353.453 61.857 A 4.175 4.175 0 0 0 354.601 62.001 A 4.466 4.466 0 0 0 355.274 61.953 Q 356.867 61.71 357.267 60.231 A 4.34 4.34 0 0 0 357.401 59.101 Q 357.401 56.201 354.601 56.201 A 4.273 4.273 0 0 0 353.527 56.324 Q 352.213 56.666 351.844 57.953 A 4.175 4.175 0 0 0 351.701 59.101 A 4.273 4.273 0 0 0 351.824 60.175 Q 352.166 61.488 353.453 61.857 Z" id="8" vector-effect="non-scaling-stroke"/>
<path class="animate-fade-in-bottom title" d="M 401.076 62.844 A 10.597 10.597 0 0 0 405.701 63.801 Q 409.301 63.801 412.501 61.801 Q 415.701 59.801 418.251 56.751 A 38.743 38.743 0 0 0 420.411 53.924 A 28.784 28.784 0 0 0 422.301 50.801 A 0.923 0.923 0 0 0 422.329 50.737 Q 422.421 50.512 422.551 49.951 Q 422.701 49.301 422.701 49.001 Q 422.701 48.601 422.501 48.251 A 0.659 0.659 0 0 0 422.065 47.93 A 1.11 1.11 0 0 0 421.801 47.901 A 1.15 1.15 0 0 0 421.613 47.917 Q 420.988 48.02 420.251 48.801 Q 419.401 49.701 418.901 50.501 Q 416.701 54.301 413.351 57.451 A 13.91 13.91 0 0 1 412.581 58.124 A 10.511 10.511 0 0 1 405.801 60.601 A 8.173 8.173 0 0 1 404.846 60.546 A 6.328 6.328 0 0 1 400.301 57.851 Q 398.926 55.96 398.354 52.912 A 23.827 23.827 0 0 1 398.001 49.901 A 3644.341 3644.341 0 0 0 399.075 48.061 Q 403.533 40.421 406.351 35.501 A 757.092 757.092 0 0 0 407.415 33.636 Q 409.046 30.77 409.972 29.072 A 80.136 80.136 0 0 0 410.601 27.901 A 203.37 203.37 0 0 0 411.781 25.605 Q 417.084 15.117 418.492 9.081 A 16.986 16.986 0 0 0 419.001 5.301 A 7.808 7.808 0 0 0 418.775 3.338 Q 417.906 0.001 413.701 0.001 A 7.315 7.315 0 0 0 410.434 0.784 Q 403.002 4.444 397.401 25.201 A 7.58 7.58 0 0 0 393.743 23.195 A 11.208 11.208 0 0 0 391.101 22.901 A 18.386 18.386 0 0 0 389.144 23.005 Q 382.192 23.748 375.701 29.801 A 31.936 31.936 0 0 0 374.217 31.268 A 23.489 23.489 0 0 0 367.401 47.901 A 21.249 21.249 0 0 0 367.645 51.176 A 15.954 15.954 0 0 0 370.401 58.101 A 13.469 13.469 0 0 0 370.555 58.316 Q 372.472 60.936 375.236 62.025 A 11.807 11.807 0 0 0 379.601 62.801 A 16.449 16.449 0 0 0 383.797 62.263 Q 387.445 61.305 390.763 58.638 A 29.34 29.34 0 0 0 395.301 54.001 Q 396.676 60.738 401.076 62.844 Z M 392.201 34.201 L 392.801 34.201 A 5.901 5.901 0 0 0 393.794 34.124 Q 394.292 34.039 394.665 33.858 A 1.838 1.838 0 0 0 395.701 32.601 L 396.301 30.201 Q 395.947 26.931 391.923 26.551 A 11.952 11.952 0 0 0 390.801 26.501 A 17.31 17.31 0 0 0 379.701 30.549 A 24.886 24.886 0 0 0 376.901 33.201 A 25.218 25.218 0 0 0 372.906 39.067 A 19.894 19.894 0 0 0 370.901 47.801 Q 370.901 52.098 372.504 55.113 A 11.358 11.358 0 0 0 372.901 55.801 Q 375.132 59.148 379.092 59.383 A 10.263 10.263 0 0 0 379.701 59.401 A 14.054 14.054 0 0 0 388.599 56.142 Q 390.7 54.478 392.628 51.966 A 35.334 35.334 0 0 0 394.601 49.101 Q 394.501 48.201 394.501 47.301 L 394.501 45.501 Q 394.501 43.501 394.651 41.501 Q 394.801 39.501 395.001 37.301 Q 394.232 37.532 393.167 37.585 A 13.342 13.342 0 0 1 392.501 37.601 A 6.812 6.812 0 0 1 391.583 37.545 Q 389.801 37.301 389.801 36.001 A 2.897 2.897 0 0 1 389.886 35.262 Q 390.136 34.318 391.112 34.142 A 2.745 2.745 0 0 1 391.601 34.101 A 1.887 1.887 0 0 1 392.198 34.2 A 2.009 2.009 0 0 1 392.201 34.201 Z M 404.171 32.102 A 4517.937 4517.937 0 0 0 404.201 32.051 Q 406.701 27.701 408.001 25.301 Q 414.527 13.028 415.55 7.301 A 15.073 15.073 0 0 0 415.601 7.001 A 3.473 3.473 0 0 0 415.68 6.578 A 2.713 2.713 0 0 0 415.701 6.251 L 415.701 5.601 A 4.311 4.311 0 0 0 415.626 4.761 Q 415.364 3.444 414.171 3.315 A 2.511 2.511 0 0 0 413.901 3.301 A 3.62 3.62 0 0 0 412.175 3.791 Q 410.85 4.512 409.351 6.29 A 25.776 25.776 0 0 0 407.901 8.201 A 39.34 39.34 0 0 0 405.055 13.32 Q 402.813 18.101 401.001 24.601 A 91.385 91.385 0 0 0 398.272 39.309 A 81.916 81.916 0 0 0 398.001 42.801 Q 401.679 36.439 404.171 32.102 Z" id="9" vector-effect="non-scaling-stroke"/>
<path class="animate-fade-in-bottom title" d="M 430.646 62.945 A 19.203 19.203 0 0 0 435.401 63.501 A 20.15 20.15 0 0 0 439.636 63.055 A 21.71 21.71 0 0 0 446.801 60.051 Q 452.201 56.601 455.601 50.801 Q 455.701 50.601 455.851 50.201 A 1.51 1.51 0 0 0 455.857 50.182 Q 455.955 49.912 455.986 49.509 A 5.312 5.312 0 0 0 456.001 49.101 Q 456.001 47.901 455.001 47.901 A 1.662 1.662 0 0 0 454.068 48.181 A 2.245 2.245 0 0 0 453.601 48.601 A 12.706 12.706 0 0 0 453.185 49.114 Q 452.967 49.398 452.727 49.735 A 30.844 30.844 0 0 0 452.201 50.501 A 26.948 26.948 0 0 1 449.798 53.739 A 18.434 18.434 0 0 1 435.301 60.401 A 15.204 15.204 0 0 1 432.485 60.153 A 10.041 10.041 0 0 1 426.301 56.551 A 13.588 13.588 0 0 1 423.655 50.941 A 19.631 19.631 0 0 1 423.201 46.601 Q 423.201 45.501 423.351 44.351 Q 423.501 43.201 423.701 42.101 Q 426.301 43.101 430.401 43.101 A 33.165 33.165 0 0 0 434.318 42.875 A 26.448 26.448 0 0 0 443.901 39.901 A 22.272 22.272 0 0 0 444.464 39.575 Q 446.325 38.463 447.631 37.17 A 9.647 9.647 0 0 0 450.701 30.101 A 9.869 9.869 0 0 0 450.591 28.602 A 6.667 6.667 0 0 0 448.151 24.251 Q 446.557 22.97 444.358 22.489 A 13.38 13.38 0 0 0 441.501 22.201 A 18.722 18.722 0 0 0 432.642 24.415 A 24.443 24.443 0 0 0 427.201 28.401 A 22.718 22.718 0 0 0 421.036 37.898 A 27.206 27.206 0 0 0 419.701 46.601 A 23.141 23.141 0 0 0 420.121 51.118 A 16.28 16.28 0 0 0 423.801 58.801 A 13.169 13.169 0 0 0 430.646 62.945 Z M 430.101 39.701 A 27.972 27.972 0 0 0 436.483 39 A 22.765 22.765 0 0 0 441.501 37.201 A 15.757 15.757 0 0 0 444.038 35.695 Q 445.338 34.731 446.12 33.615 A 6.329 6.329 0 0 0 447.301 29.901 A 4.22 4.22 0 0 0 446.818 27.822 Q 445.854 26.086 442.965 25.707 A 13.609 13.609 0 0 0 441.201 25.601 Q 435.701 25.601 431.001 29.701 A 22.783 22.783 0 0 0 424.957 37.953 A 26.85 26.85 0 0 0 424.601 38.801 Q 426.678 39.614 429.49 39.692 A 21.846 21.846 0 0 0 430.101 39.701 Z" id="10" vector-effect="non-scaling-stroke"/>
<path class="animate-fade-in-bottom title" d="M 457.401 29.901 L 458.601 25.901 A 9.496 9.496 0 0 1 459.078 24.92 Q 459.635 23.937 460.261 23.551 A 1.578 1.578 0 0 1 461.101 23.301 A 2.119 2.119 0 0 1 461.711 23.475 Q 462.359 23.782 462.475 24.545 A 2.361 2.361 0 0 1 462.501 24.901 L 460.601 30.901 Q 457.794 39.915 457.375 47.338 A 45.387 45.387 0 0 0 457.301 49.901 Q 457.301 59.601 463.001 59.601 A 7.712 7.712 0 0 0 467.044 58.337 Q 469.909 56.579 472.928 52.379 A 52.571 52.571 0 0 0 475.501 48.401 Q 479.569 41.379 480.968 35.434 A 25.922 25.922 0 0 0 481.701 29.501 A 12.455 12.455 0 0 0 481.526 27.312 Q 480.84 23.491 477.462 23.403 A 6.174 6.174 0 0 0 477.301 23.401 A 2.521 2.521 0 0 0 476.195 23.627 Q 475.13 24.14 474.941 25.822 A 6.999 6.999 0 0 0 474.901 26.601 Q 474.901 28.101 476.201 28.801 A 4.266 4.266 0 0 1 476.739 29.14 Q 477.389 29.628 477.484 30.202 A 1.214 1.214 0 0 1 477.501 30.401 A 2.61 2.61 0 0 1 477.425 31.061 Q 477.152 32.101 475.901 32.101 A 3.236 3.236 0 0 1 473.904 31.396 Q 473.269 30.913 472.701 30.101 A 6.96 6.96 0 0 1 471.86 28.54 A 5.469 5.469 0 0 1 471.501 26.601 Q 471.501 24.001 473.101 22.001 A 5.069 5.069 0 0 1 476.783 20.021 A 6.389 6.389 0 0 1 477.301 20.001 A 8.907 8.907 0 0 1 480.658 20.584 Q 484.514 22.145 484.946 27.885 A 20.211 20.211 0 0 1 485.001 29.401 Q 485.001 38.401 478.401 50.101 A 50.529 50.529 0 0 1 475.072 55.284 Q 469.356 63.001 463.401 63.001 A 7.648 7.648 0 0 1 456.107 58.759 Q 454.414 55.564 454.308 49.965 A 40.121 40.121 0 0 1 454.301 49.201 A 59.741 59.741 0 0 1 455.282 38.664 A 78.459 78.459 0 0 1 457.401 29.901 Z" id="11" vector-effect="non-scaling-stroke"/>
</g></svg>
